<svg width="78" height="38" viewBox="0 0 78 38" fill="none" xmlns="http://www.w3.org/2000/svg">
<path d="M8.72656 26.9219C7.60156 22.2812 6.60938 18.3984 5.75 15.2734C4.89062 12.1328 4.20312 10.1797 3.6875 9.41406L1.34375 9.25C0.890625 8.0625 0.570312 6.60156 0.382812 4.86719C0.648438 4.00781 1.14844 3.26563 1.88281 2.64062C2.61719 2 3.47656 1.51562 4.46094 1.1875C5.44531 0.859375 6.4375 0.695312 7.4375 0.695312C9.71875 0.695312 11.4219 1.74219 12.5469 3.83594C13.0625 4.78906 13.5 5.9375 13.8594 7.28125C14.2188 8.60938 14.5547 10.1875 14.8672 12.0156C15.3828 15.0938 15.7422 17.8594 15.9453 20.3125C16.1484 22.75 16.3125 25.3438 16.4375 28.0938L16.5312 30.2031H16.8828C17.2734 29.3438 17.7031 27.4922 18.1719 24.6484C18.6406 21.8047 19.0469 18.7969 19.3906 15.625C19.7344 12.4375 19.9219 10.0703 19.9531 8.52344L17 8.07812C16.7812 7.25 16.6406 6.50781 16.5781 5.85156C16.5156 5.19531 16.4844 4.39844 16.4844 3.46094C16.8125 3.05469 17.3594 2.63281 18.125 2.19531C18.8906 1.75781 19.7812 1.39063 20.7969 1.09375C21.8125 0.796875 22.8203 0.648438 23.8203 0.648438C25.1641 0.648438 26.375 0.875 27.4531 1.32812C28.5469 1.76563 29.4141 2.42188 30.0547 3.29688C30.7109 4.17187 31.0469 5.24219 31.0625 6.50781V10.1172C31.7656 12.8516 32.375 16.0625 32.8906 19.75C33.4219 23.4219 33.8125 26.8984 34.0625 30.1797H34.3203C34.6953 29.3047 35.1172 27.4453 35.5859 24.6016C36.0703 21.7422 36.4922 18.7344 36.8516 15.5781C37.2109 12.4062 37.3984 10.0547 37.4141 8.52344L34.6484 8.07812C34.4297 7.25 34.2891 6.50781 34.2266 5.85156C34.1641 5.19531 34.1328 4.39844 34.1328 3.46094C34.4453 3.05469 34.9922 2.63281 35.7734 2.19531C36.5547 1.75781 37.4531 1.39063 38.4688 1.09375C39.5 0.796875 40.5156 0.648438 41.5156 0.648438C43.5625 0.648438 45.0938 1.17969 46.1094 2.24219C47.125 3.30469 47.6328 4.92187 47.6328 7.09375C47.6328 9.15625 47.2891 11.8125 46.6016 15.0625C45.9141 18.3125 45.0547 21.3672 44.0234 24.2266C43.1328 26.7266 42.2578 28.8906 41.3984 30.7188C40.5391 32.5312 39.4766 34.3125 38.2109 36.0625C37.6953 36.5938 37.0156 36.9609 36.1719 37.1641C35.3438 37.3672 34.4844 37.4688 33.5938 37.4688C30.5156 37.4688 28.2422 36.875 26.7734 35.6875L27.4062 30.8828L25.8828 22.9844C25.5234 20.9062 25.2891 19.25 25.1797 18.0156L24.875 17.9922L24.8047 20.9688C24.2891 24.0312 23.6562 26.875 22.9062 29.5C22.1719 32.1094 21.3281 34.2969 20.375 36.0625C19.9219 36.5781 19.2969 36.9375 18.5 37.1406C17.7031 37.3594 16.8906 37.4688 16.0625 37.4688C12.8594 37.4688 10.6016 36.8828 9.28906 35.7109L9.80469 31.3047L8.72656 26.9219ZM51.8516 19.6562C51.8516 14.9219 51.9219 11.2891 52.0625 8.75781H52.0391L48.4531 8.26562C48.25 7.6875 48.0938 7.05469 47.9844 6.36719C47.875 5.66406 47.8203 4.98438 47.8203 4.32812C47.8203 3.82813 47.8594 3.28125 47.9375 2.6875C49.8438 2.04688 52.3359 1.55469 55.4141 1.21094C58.4922 0.851563 61.4297 0.671875 64.2266 0.671875C66.6172 0.671875 68.6719 0.859375 70.3906 1.23438C72.1094 1.59375 73.5469 2.42188 74.7031 3.71875C75.875 5 76.4609 6.91406 76.4609 9.46094C76.4609 10.4609 76.1875 11.5938 75.6406 12.8594C75.0938 14.1094 74.375 15.2891 73.4844 16.3984C72.6094 17.4922 71.6953 18.3359 70.7422 18.9297C71.9297 19.1328 73.0312 19.5469 74.0469 20.1719C75.0781 20.7812 75.9141 21.6172 76.5547 22.6797C77.1953 23.7266 77.5156 24.9688 77.5156 26.4062C77.5156 28.3281 77.1484 29.9844 76.4141 31.375C75.6797 32.7656 74.6328 33.9141 73.2734 34.8203C70.6172 36.5859 66.8672 37.4688 62.0234 37.4688C60.1172 37.4688 58.4219 37.4297 56.9375 37.3516C55.4688 37.2891 54.1094 37.1641 52.8594 36.9766C52.1875 33.3516 51.8516 27.5781 51.8516 19.6562ZM65.1875 18.1797C65.5938 17.0391 65.9375 15.5938 66.2188 13.8438C66.5156 12.0781 66.6953 10.6406 66.7578 9.53125C66.6797 9.39062 66.2812 9.27344 65.5625 9.17969C64.8438 9.07031 63.9141 9.01562 62.7734 9.01562C62.4141 9.01562 61.8125 9.03906 60.9688 9.08594C60.8438 12.6016 60.6562 15.7578 60.4062 18.5547L62.7734 18.3672L65.1875 18.1797ZM64.0156 31.3281C65.3281 31.3281 66.2656 31.2734 66.8281 31.1641C67.2188 30.9297 67.5625 30.5078 67.8594 29.8984C68.1719 29.2891 68.4062 28.625 68.5625 27.9062C68.7188 27.1719 68.7969 26.5156 68.7969 25.9375C68.5156 25.125 67.1172 24.7188 64.6016 24.7188C63.5391 24.7188 62.3203 24.7891 60.9453 24.9297C60.5703 24.9766 60.2891 25 60.1016 25L60.0312 28.4219C60.0156 28.7656 60 29.1641 59.9844 29.6172C59.9688 30.0703 59.9609 30.5781 59.9609 31.1406C60.9922 31.2656 62.1172 31.3281 63.3359 31.3281H64.0156Z" fill="white"/>
</svg>
