<svg width="162" height="40" viewBox="0 0 162 40" fill="none" xmlns="http://www.w3.org/2000/svg">
<path d="M8.72656 28.9219C7.60156 24.2812 6.60938 20.3984 5.75 17.2734C4.89062 14.1328 4.20312 12.1797 3.6875 11.4141L1.34375 11.25C0.890625 10.0625 0.570312 8.60156 0.382812 6.86719C0.648438 6.00781 1.14844 5.26563 1.88281 4.64062C2.61719 4 3.47656 3.51562 4.46094 3.1875C5.44531 2.85938 6.4375 2.69531 7.4375 2.69531C9.71875 2.69531 11.4219 3.74219 12.5469 5.83594C13.0625 6.78906 13.5 7.9375 13.8594 9.28125C14.2188 10.6094 14.5547 12.1875 14.8672 14.0156C15.3828 17.0938 15.7422 19.8594 15.9453 22.3125C16.1484 24.75 16.3125 27.3438 16.4375 30.0938L16.5312 32.2031H16.8828C17.2734 31.3438 17.7031 29.4922 18.1719 26.6484C18.6406 23.8047 19.0469 20.7969 19.3906 17.625C19.7344 14.4375 19.9219 12.0703 19.9531 10.5234L17 10.0781C16.7812 9.25 16.6406 8.50781 16.5781 7.85156C16.5156 7.19531 16.4844 6.39844 16.4844 5.46094C16.8125 5.05469 17.3594 4.63281 18.125 4.19531C18.8906 3.75781 19.7812 3.39063 20.7969 3.09375C21.8125 2.79687 22.8203 2.64844 23.8203 2.64844C25.1641 2.64844 26.375 2.875 27.4531 3.32812C28.5469 3.76563 29.4141 4.42188 30.0547 5.29688C30.7109 6.17187 31.0469 7.24219 31.0625 8.50781V12.1172C31.7656 14.8516 32.375 18.0625 32.8906 21.75C33.4219 25.4219 33.8125 28.8984 34.0625 32.1797H34.3203C34.6953 31.3047 35.1172 29.4453 35.5859 26.6016C36.0703 23.7422 36.4922 20.7344 36.8516 17.5781C37.2109 14.4062 37.3984 12.0547 37.4141 10.5234L34.6484 10.0781C34.4297 9.25 34.2891 8.50781 34.2266 7.85156C34.1641 7.19531 34.1328 6.39844 34.1328 5.46094C34.4453 5.05469 34.9922 4.63281 35.7734 4.19531C36.5547 3.75781 37.4531 3.39063 38.4688 3.09375C39.5 2.79687 40.5156 2.64844 41.5156 2.64844C43.5625 2.64844 45.0938 3.17969 46.1094 4.24219C47.125 5.30469 47.6328 6.92187 47.6328 9.09375C47.6328 11.1562 47.2891 13.8125 46.6016 17.0625C45.9141 20.3125 45.0547 23.3672 44.0234 26.2266C43.1328 28.7266 42.2578 30.8906 41.3984 32.7188C40.5391 34.5312 39.4766 36.3125 38.2109 38.0625C37.6953 38.5938 37.0156 38.9609 36.1719 39.1641C35.3438 39.3672 34.4844 39.4688 33.5938 39.4688C30.5156 39.4688 28.2422 38.875 26.7734 37.6875L27.4062 32.8828L25.8828 24.9844C25.5234 22.9062 25.2891 21.25 25.1797 20.0156L24.875 19.9922L24.8047 22.9688C24.2891 26.0312 23.6562 28.875 22.9062 31.5C22.1719 34.1094 21.3281 36.2969 20.375 38.0625C19.9219 38.5781 19.2969 38.9375 18.5 39.1406C17.7031 39.3594 16.8906 39.4688 16.0625 39.4688C12.8594 39.4688 10.6016 38.8828 9.28906 37.7109L9.80469 33.3047L8.72656 28.9219ZM51.8516 21.6562C51.8516 16.9219 51.9219 13.2891 52.0625 10.7578H52.0391L48.4531 10.2656C48.25 9.6875 48.0938 9.05469 47.9844 8.36719C47.875 7.66406 47.8203 6.98438 47.8203 6.32812C47.8203 5.82813 47.8594 5.28125 47.9375 4.6875C49.8438 4.04688 52.3359 3.55469 55.4141 3.21094C58.4922 2.85156 61.4297 2.67188 64.2266 2.67188C66.6172 2.67188 68.6719 2.85938 70.3906 3.23438C72.1094 3.59375 73.5469 4.42188 74.7031 5.71875C75.875 7 76.4609 8.91406 76.4609 11.4609C76.4609 12.4609 76.1875 13.5938 75.6406 14.8594C75.0938 16.1094 74.375 17.2891 73.4844 18.3984C72.6094 19.4922 71.6953 20.3359 70.7422 20.9297C71.9297 21.1328 73.0312 21.5469 74.0469 22.1719C75.0781 22.7812 75.9141 23.6172 76.5547 24.6797C77.1953 25.7266 77.5156 26.9688 77.5156 28.4062C77.5156 30.3281 77.1484 31.9844 76.4141 33.375C75.6797 34.7656 74.6328 35.9141 73.2734 36.8203C70.6172 38.5859 66.8672 39.4688 62.0234 39.4688C60.1172 39.4688 58.4219 39.4297 56.9375 39.3516C55.4688 39.2891 54.1094 39.1641 52.8594 38.9766C52.1875 35.3516 51.8516 29.5781 51.8516 21.6562ZM65.1875 20.1797C65.5938 19.0391 65.9375 17.5938 66.2188 15.8438C66.5156 14.0781 66.6953 12.6406 66.7578 11.5312C66.6797 11.3906 66.2812 11.2734 65.5625 11.1797C64.8438 11.0703 63.9141 11.0156 62.7734 11.0156C62.4141 11.0156 61.8125 11.0391 60.9688 11.0859C60.8438 14.6016 60.6562 17.7578 60.4062 20.5547L62.7734 20.3672L65.1875 20.1797ZM64.0156 33.3281C65.3281 33.3281 66.2656 33.2734 66.8281 33.1641C67.2188 32.9297 67.5625 32.5078 67.8594 31.8984C68.1719 31.2891 68.4062 30.625 68.5625 29.9062C68.7188 29.1719 68.7969 28.5156 68.7969 27.9375C68.5156 27.125 67.1172 26.7188 64.6016 26.7188C63.5391 26.7188 62.3203 26.7891 60.9453 26.9297C60.5703 26.9766 60.2891 27 60.1016 27L60.0312 30.4219C60.0156 30.7656 60 31.1641 59.9844 31.6172C59.9688 32.0703 59.9609 32.5781 59.9609 33.1406C60.9922 33.2656 62.1172 33.3281 63.3359 33.3281H64.0156ZM80.3984 25.1484C80.3984 22.3203 80.8516 19.8672 81.7578 17.7891C82.6641 15.7109 84.0547 14.1016 85.9297 12.9609C87.8047 11.8047 90.1562 11.2266 92.9844 11.2266C96.1094 11.2266 98.5625 11.8125 100.344 12.9844C102.125 14.1406 103.367 15.75 104.07 17.8125C104.789 19.875 105.148 22.3984 105.148 25.3828C105.148 28.0859 104.672 30.5 103.719 32.625C102.781 34.7344 101.359 36.4062 99.4531 37.6406C97.5625 38.8594 95.2422 39.4688 92.4922 39.4688C88.2422 39.4688 85.1641 38.1641 83.2578 35.5547C81.3516 32.9297 80.3984 29.4609 80.3984 25.1484ZM93.4531 32.6016C94.25 32.6016 94.7344 32.5391 94.9062 32.4141C95.2656 31.7891 95.5391 30.9062 95.7266 29.7656C95.9141 28.625 96.0078 27.3906 96.0078 26.0625C96.0078 24.8438 95.9297 23.7031 95.7734 22.6406C95.6172 21.5625 95.3984 20.7188 95.1172 20.1094C94.9453 19.9062 94.6016 19.7578 94.0859 19.6641C93.5703 19.5547 93.0078 19.5 92.3984 19.5C91.6016 19.5 91.0547 19.5859 90.7578 19.7578C89.9766 21.1016 89.5859 22.9688 89.5859 25.3594C89.5859 26.4844 89.6719 27.6328 89.8438 28.8047C90.0156 29.9766 90.2344 31.0391 90.5 31.9922C90.6875 32.1953 91.0703 32.3516 91.6484 32.4609C92.2266 32.5547 92.8281 32.6016 93.4531 32.6016ZM108.289 25.1484C108.289 22.3203 108.742 19.8672 109.648 17.7891C110.555 15.7109 111.945 14.1016 113.82 12.9609C115.695 11.8047 118.047 11.2266 120.875 11.2266C124 11.2266 126.453 11.8125 128.234 12.9844C130.016 14.1406 131.258 15.75 131.961 17.8125C132.68 19.875 133.039 22.3984 133.039 25.3828C133.039 28.0859 132.562 30.5 131.609 32.625C130.672 34.7344 129.25 36.4062 127.344 37.6406C125.453 38.8594 123.133 39.4688 120.383 39.4688C116.133 39.4688 113.055 38.1641 111.148 35.5547C109.242 32.9297 108.289 29.4609 108.289 25.1484ZM121.344 32.6016C122.141 32.6016 122.625 32.5391 122.797 32.4141C123.156 31.7891 123.43 30.9062 123.617 29.7656C123.805 28.625 123.898 27.3906 123.898 26.0625C123.898 24.8438 123.82 23.7031 123.664 22.6406C123.508 21.5625 123.289 20.7188 123.008 20.1094C122.836 19.9062 122.492 19.7578 121.977 19.6641C121.461 19.5547 120.898 19.5 120.289 19.5C119.492 19.5 118.945 19.5859 118.648 19.7578C117.867 21.1016 117.477 22.9688 117.477 25.3594C117.477 26.4844 117.562 27.6328 117.734 28.8047C117.906 29.9766 118.125 31.0391 118.391 31.9922C118.578 32.1953 118.961 32.3516 119.539 32.4609C120.117 32.5547 120.719 32.6016 121.344 32.6016ZM137.539 23.8594C137.539 16.5469 137.68 11.5312 137.961 8.8125L135.312 8.34375C134.938 6.90625 134.75 5.35938 134.75 3.70312C134.984 3.40625 135.422 3.03906 136.062 2.60156C136.703 2.16406 137.445 1.78125 138.289 1.45312C139.148 1.125 140 0.960938 140.844 0.960938C142.938 0.960938 144.562 1.41406 145.719 2.32031C146.891 3.22656 147.477 4.77344 147.477 6.96094C147.477 8.05469 147.398 9.73438 147.242 12C147.086 14.25 146.797 16.9844 146.375 20.2031C145.953 23.4219 145.391 26.7812 144.688 30.2812L145.086 30.5156C146.32 28.8125 147.508 26.9375 148.648 24.8906C149.789 22.8281 150.695 20.9141 151.367 19.1484L149.352 18.6562C149.164 17.5938 149.07 16.3359 149.07 14.8828V14.0391C149.664 13.2891 150.477 12.6328 151.508 12.0703C152.555 11.5078 153.852 11.2266 155.398 11.2266C156.508 11.2266 157.469 11.4375 158.281 11.8594C159.094 12.2656 159.719 12.8359 160.156 13.5703C160.594 14.3047 160.812 15.1484 160.812 16.1016C160.812 16.8203 160.703 17.5 160.484 18.1406C160.266 18.7656 159.938 19.4297 159.5 20.1328C158.375 21.9141 156.414 24.4453 153.617 27.7266C154.555 29.0391 155.469 30.1797 156.359 31.1484C156.703 30.9766 157.023 30.75 157.32 30.4688C157.633 30.1875 158.031 29.7812 158.516 29.25L159.031 28.7109L161.914 30.8906C161.805 33.6719 161.203 35.7969 160.109 37.2656C159.031 38.7188 157.602 39.4453 155.82 39.4453C153.867 39.4453 152.398 38.8516 151.414 37.6641C150.43 36.4766 149.711 34.7969 149.258 32.625C147.539 34.4844 146.023 36.0469 144.711 37.3125C143.414 38.5625 142.562 39.2812 142.156 39.4688C141.297 39.4688 140.477 39.3672 139.695 39.1641C138.914 38.9609 138.336 38.6406 137.961 38.2031C137.789 35.9844 137.672 33.7891 137.609 31.6172C137.562 29.4297 137.539 26.8438 137.539 23.8594Z" fill="white"/>
</svg>
