<?xml version="1.0" encoding="UTF-8"?>
<svg version="1.1" xmlns="http://www.w3.org/2000/svg" width="162" height="40">
<path d="M0 0 C3.53293927 3.46280648 3.93085166 7.5695305 4.6875 12.25 C4.81705078 12.99507812 4.94660156 13.74015625 5.08007812 14.5078125 C5.39664262 16.33685178 5.69967399 18.16822435 6 20 C7.21693876 17.56612247 7.31959896 15.58161154 7.5625 12.875 C7.64628906 11.96492187 7.73007812 11.05484375 7.81640625 10.1171875 C7.90728516 9.06917969 7.90728516 9.06917969 8 8 C7.01 7.67 6.02 7.34 5 7 C4.6875 4.6875 4.6875 4.6875 5 2 C7.26438405 -0.12286005 8.90900201 -0.98539773 12.04296875 -1.02734375 C17.5215081 -0.4784919 17.5215081 -0.4784919 20 2 C20.48657227 3.86352539 20.48657227 3.86352539 20.81640625 6.09765625 C20.94080078 6.89880859 21.06519531 7.69996094 21.19335938 8.52539062 C21.31517578 9.36263672 21.43699219 10.19988281 21.5625 11.0625 C21.81025986 12.72058525 22.06138298 14.37817261 22.31640625 16.03515625 C22.42412354 16.7712915 22.53184082 17.50742676 22.64282227 18.26586914 C22.83889004 20.022197 22.83889004 20.022197 24 21 C24.66 16.71 25.32 12.42 26 8 C25.01 8 24.02 8 23 8 C23 5.69 23 3.38 23 1 C26.77045776 -0.78672143 29.1978524 -1.14009887 33.3125 -0.5625 C37.39687645 -0.09353288 40.8555363 -0.10146033 44.89453125 -0.734375 C51.18221586 -1.52762649 57.2077734 -1.78701314 63 1 C65.36810749 3.28644861 65.94026718 4.60747003 66.4375 7.875 C65.89498729 11.75009081 64.34729859 13.9191706 62 17 C62.825 17.680625 63.65 18.36125 64.5 19.0625 C67 22 67 22 67.5 25.5 C66.95994097 29.28041321 66.48662888 31.11230195 64 34 C57.48739513 38.29239866 49.52698148 37.48803371 42 37 C37.9076163 32.9076163 39.87909465 19.35078362 39.8671875 13.96875 C40 11 40 11 41 8 C39.68 8 38.36 8 37 8 C36.9071875 9.794375 36.9071875 9.794375 36.8125 11.625 C35.89089033 20.03969697 32.7810168 28.99465987 28 36 C24.97562661 37.5121867 22.33758466 37.17263369 19 37 C16.5625 36 16.5625 36 15 35 C15.020625 33.9275 15.04125 32.855 15.0625 31.75 C15.01336602 28.80196101 14.77716091 26.76595853 14 24 C13.73445313 24.85464844 13.46890625 25.70929687 13.1953125 26.58984375 C12.84210937 27.69457031 12.48890625 28.79929687 12.125 29.9375 C11.77695312 31.03964844 11.42890625 32.14179687 11.0703125 33.27734375 C10 36 10 36 8 37 C4.32670036 37.13357453 1.50147041 37.1671568 -2 36 C-2.10957031 35.18917969 -2.21914062 34.37835938 -2.33203125 33.54296875 C-3.27683012 26.94473921 -4.49983465 20.62926457 -6.4140625 14.2421875 C-7 12 -7 12 -7 9 C-7.99 9 -8.98 9 -10 9 C-10.33 6.69 -10.66 4.38 -11 2 C-7.02379149 -0.92368273 -4.74705621 -1.54795311 0 0 Z M51 8 C49.79438816 8.98267859 49.79438816 8.98267859 49.90234375 10.84765625 C49.91394531 11.57855469 49.92554688 12.30945313 49.9375 13.0625 C49.958125 14.361875 49.97875 15.66125 50 17 C51.32 17 52.64 17 54 17 C54.33 14.36 54.66 11.72 55 9 C53.05396726 8.40929986 53.05396726 8.40929986 51 8 Z M50 24 C49.67 25.98 49.34 27.96 49 30 C51.31 30 53.62 30 56 30 C56.38218767 28.34385343 56.71395102 26.67542976 57 25 C55.87465895 23.64381501 55.87465895 23.64381501 52.9375 23.9375 C51.968125 23.958125 50.99875 23.97875 50 24 Z " fill="#FFFFFF" transform="translate(11,3)"/>
<path d="M0 0 C0.680625 -0.01675781 1.36125 -0.03351562 2.0625 -0.05078125 C4.62705729 0.43007324 5.48329944 1.20597144 7 3.3125 C7.328125 5.37109375 7.328125 5.37109375 7.25 7.75 C7.22421875 8.62269531 7.1984375 9.49539063 7.171875 10.39453125 C6.87842035 15.37659094 6.47798252 20.3448959 6 25.3125 C6.99 23.3325 7.98 21.3525 9 19.3125 C8.67 18.9825 8.34 18.6525 8 18.3125 C7.8125 15.375 7.8125 15.375 8 12.3125 C10 10.3125 10 10.3125 11.875 10.046875 C12.57625 10.05203125 13.2775 10.0571875 14 10.0625 C14.70125 10.05734375 15.4025 10.0521875 16.125 10.046875 C18 10.3125 18 10.3125 20 12.3125 C20.9042031 16.9465409 19.51293821 19.42401943 17 23.1875 C16.01308529 24.57192203 15.01720167 25.95017634 14 27.3125 C15.32 27.3125 16.64 27.3125 18 27.3125 C18.99 27.9725 19.98 28.6325 21 29.3125 C21.54674008 32.90536341 21.41137706 34.67075179 19.4375 37.75 C17 39.3125 17 39.3125 13.4375 39.3125 C10 38.3125 10 38.3125 8.0625 36.25 C7.711875 35.610625 7.36125 34.97125 7 34.3125 C6.278125 35.158125 5.55625 36.00375 4.8125 36.875 C2 39.3125 2 39.3125 -0.75 39.1875 C-3 38.3125 -3 38.3125 -4 37.3125 C-4.08775605 35.16691173 -4.10695219 33.01845579 -4.09765625 30.87109375 C-4.09282227 28.91333008 -4.09282227 28.91333008 -4.08789062 26.91601562 C-4.07953401 25.5273431 -4.07106905 24.13867123 -4.0625 22.75 C-4.05748666 21.35742344 -4.05292347 19.96484519 -4.04882812 18.57226562 C-4.03699434 15.1523013 -4.0205088 11.73242156 -4 8.3125 C-4.66 8.3125 -5.32 8.3125 -6 8.3125 C-6.33 6.3325 -6.66 4.3525 -7 2.3125 C-4.03082597 0.33305064 -3.34297721 0.01899419 0 0 Z " fill="#FFFFFF" transform="translate(141,0.6875)"/>
<path d="M0 0 C3.50166426 2.95452922 4.34640987 5.46889464 4.8125 9.875 C5.22003951 15.36950586 4.53189335 18.79832663 2 23.6875 C-1.13877243 26.72818579 -3.94850185 27.60814165 -8.3125 27.9375 C-12.4208273 27.65896934 -14.60444306 27.00265246 -18 24.6875 C-21.84166847 19.56527538 -21.66698844 13.82744841 -21 7.6875 C-19.78052428 4.09325577 -18.71859909 2.3407719 -15.9375 -0.1875 C-10.63503988 -2.21822941 -5.2145001 -2.28134379 0 0 Z M-10 7.6875 C-11.12256131 9.93262262 -11.13413762 11.20206649 -11.125 13.6875 C-11.12757812 14.38875 -11.13015625 15.09 -11.1328125 15.8125 C-11.11377236 17.77903775 -11.11377236 17.77903775 -10 19.6875 C-8.68 19.6875 -7.36 19.6875 -6 19.6875 C-4.9187609 13.62699386 -4.9187609 13.62699386 -6 7.6875 C-7.32 7.6875 -8.64 7.6875 -10 7.6875 Z " fill="#FFFFFF" transform="translate(101,12.3125)"/>
<path d="M0 0 C3.14790838 2.75441983 3.91682048 4.84366736 4.30078125 9.02734375 C4.30658203 10.83912109 4.30658203 10.83912109 4.3125 12.6875 C4.33763672 14.49541016 4.33763672 14.49541016 4.36328125 16.33984375 C3.9728642 20.00472634 3.21038399 21.83774052 1 24.75 C-3.49721493 27.78300542 -7.70308473 28.69964616 -13 27.75 C-16.4204433 26.03977835 -18.42916525 24.89946247 -20.14453125 21.4453125 C-21.94829035 15.76223589 -21.71624634 9.86104185 -19.8125 4.25 C-15.00665363 -2.37875362 -7.3138889 -3.04745371 0 0 Z M-10 7.75 C-11.22011391 8.75057979 -11.22011391 8.75057979 -11.1328125 10.74609375 C-11.13023438 11.55175781 -11.12765625 12.35742188 -11.125 13.1875 C-11.12757812 13.99058594 -11.13015625 14.79367188 -11.1328125 15.62109375 C-11.13578326 17.80397931 -11.13578326 17.80397931 -10 19.75 C-8.68 19.75 -7.36 19.75 -6 19.75 C-6 15.79 -6 11.83 -6 7.75 C-7.32 7.75 -8.64 7.75 -10 7.75 Z " fill="#FFFFFF" transform="translate(129,12.25)"/>
</svg>
